<svg xmlns="http://www.w3.org/2000/svg" viewBox="0 0 28 28"><title>car_selected</title><circle cx="14" cy="14" r="14" fill="#0485f5"/><path d="M20.574,12l-.661.651L19.19,9.758A1,1,0,0,0,18.219,9H9.781a1,1,0,0,0-.97.757l-.724,2.894L7.426,12H6v1H7l.525.638L7,15c-.011.123,0,4,0,4a1,1,0,0,0,1,1H9a1,1,0,0,0,1-1h8a1,1,0,0,0,1,1h1a1,1,0,0,0,1-1V15c-.045-.134-.515-1.336-.527-1.362L21,13h1V12ZM9.655,10.379A.5.5,0,0,1,10.14,10h7.719a.5.5,0,0,1,.485.379L19,13H9ZM10.7,15.724a.983.983,0,0,1-.335.223,1.019,1.019,0,0,1-.38.073,1,1,0,0,1-.714-.3.964.964,0,0,1-.223-.335,1.011,1.011,0,0,1,1.317-1.316,1,1,0,0,1,.335.223.988.988,0,0,1,.223.335,1.027,1.027,0,0,1,0,.758A.96.96,0,0,1,10.7,15.724ZM11,18l1-2h4l1,2Zm6.632-2.053a.983.983,0,0,1-.335-.223.951.951,0,0,1-.223-.335A.974.974,0,0,1,17,15.01a1.01,1.01,0,0,1,.073-.379,1.022,1.022,0,0,1,.558-.558A1.05,1.05,0,0,1,18.01,14a1.008,1.008,0,0,1,.937.631,1.038,1.038,0,0,1,.073.379,1.051,1.051,0,0,1-.072.379,1,1,0,0,1-.223.335.983.983,0,0,1-.335.223,1.017,1.017,0,0,1-.379.073A.99.99,0,0,1,17.632,15.947Z" fill="#fff"/><path d="M6,6H22V22H6Z" fill="none"/><rect width="28" height="28" fill="none"/></svg>