<svg xmlns="http://www.w3.org/2000/svg" viewBox="0 0 28 28"><title>walk_selected</title><circle cx="14" cy="14" r="14" fill="#0485f5"/><path d="M19.422,11.612a1.018,1.018,0,0,0-.531-.531A.976.976,0,0,0,18.5,11H17l-.752-.752a2.664,2.664,0,0,0-1.317-.719L12.5,9h-.523a1.981,1.981,0,0,0-.9.211l-1.523.766a1.027,1.027,0,0,0-.406.367A.957.957,0,0,0,9,10.871V13.5a.964.964,0,0,0,.078.391,1,1,0,0,0,1.31.532h0a1,1,0,0,0,.316-.215,1.017,1.017,0,0,0,.215-.316A.972.972,0,0,0,11,13.5v-2l.938-.469q-.321,1.477-.638,2.942t-.645,2.941q-.157.719-.328,1.434t-.3,1.441A1.011,1.011,0,0,0,10,20a.964.964,0,0,0,.078.391,1,1,0,0,0,.215.316.983.983,0,0,0,.32.215A.964.964,0,0,0,11,21a.912.912,0,0,0,.625-.219,1.169,1.169,0,0,0,.352-.57q.1-.359.172-.73t.148-.738l.617-2.828L15,18v2a.964.964,0,0,0,.078.391,1,1,0,0,0,1.31.532h0a1,1,0,0,0,.316-.215,1.017,1.017,0,0,0,.215-.316A.972.972,0,0,0,17,20V17.417a1.009,1.009,0,0,0-.074-.379.974.974,0,0,0-.215-.324L14.4,14.4,15,12l.355.355.355.355a1.074,1.074,0,0,0,.324.211.946.946,0,0,0,.38.079H18.5a.959.959,0,0,0,.391-.078,1.008,1.008,0,0,0,.531-1.315ZM13.438,8.566a1.494,1.494,0,0,0,.477.32,1.523,1.523,0,0,0,1.172,0,1.492,1.492,0,0,0,.8-.8,1.523,1.523,0,0,0,0-1.172,1.492,1.492,0,0,0-.8-.8,1.523,1.523,0,0,0-1.172,0,1.492,1.492,0,0,0-.8.8,1.523,1.523,0,0,0,0,1.172A1.489,1.489,0,0,0,13.438,8.566Z" fill="#fff"/><path d="M6,6H22V22H6Z" fill="none"/><rect width="28" height="28" fill="none"/></svg>